<?xml version="1.0" standalone="no"?>
<!DOCTYPE svg PUBLIC "-//W3C//DTD SVG 20010904//EN"
 "http://www.w3.org/TR/2001/REC-SVG-20010904/DTD/svg10.dtd">
<svg version="1.0" xmlns="http://www.w3.org/2000/svg"
 width="1124.000000pt" height="1024.000000pt" viewBox="0 0 1124.000000 1024.000000"
 preserveAspectRatio="xMidYMid meet">
<metadata>
Created by potrace 1.15, written by Peter Selinger 2001-2017
</metadata>
<g transform="translate(0.000000,1024.000000) scale(0.100000,-0.100000)"
fill="#000000" stroke="none">
<path d="M8645 9670 c-290 -33 -583 -192 -828 -450 -210 -222 -337 -459 -382
-714 -23 -137 -18 -383 12 -480 3 -11 -79 76 -182 192 l-188 212 -29 -18 c-45
-26 -174 -166 -212 -231 -45 -77 -84 -179 -103 -265 -31 -148 0 -374 73 -519
l26 -52 -23 21 c-65 58 -391 324 -397 324 -4 0 -140 -133 -302 -295 l-295
-295 360 -360 360 -361 -95 57 c-476 287 -972 271 -1413 -43 -98 -70 -284
-253 -354 -346 -160 -218 -240 -418 -266 -664 -26 -262 48 -560 206 -822 l56
-93 -69 66 c-146 137 -335 245 -505 288 -74 19 -116 23 -235 22 -171 -1 -262
-20 -406 -88 -129 -61 -206 -116 -304 -215 -102 -104 -176 -209 -235 -334 -57
-120 -77 -202 -78 -310 l-1 -88 -591 591 c-324 324 -595 590 -600 590 -6 0
-156 -146 -335 -325 l-325 -325 1200 -1200 1200 -1200 650 0 649 0 -465 468
c-485 487 -540 545 -634 677 -190 266 -192 439 -6 626 60 60 87 80 130 94 83
27 155 17 265 -39 183 -91 305 -199 901 -795 l450 -451 322 322 323 323 -377
379 c-301 301 -366 371 -320 342 238 -149 492 -227 742 -229 211 -1 378 37
570 128 299 143 668 487 867 808 48 76 128 237 128 256 0 10 -488 336 -494
330 -2 -2 -39 -53 -81 -114 -121 -173 -202 -273 -300 -370 -183 -184 -356
-265 -523 -244 -68 9 -185 65 -245 119 l-49 43 614 614 613 613 387 -387 388
-388 342 342 343 343 -531 532 c-292 293 -546 554 -563 581 -44 65 -87 160
-106 232 -19 75 -19 204 0 280 22 88 87 210 156 293 l61 73 61 -108 c270 -471
756 -839 1217 -919 140 -24 381 -15 511 19 190 50 358 133 537 266 124 92 422
394 504 511 75 106 157 249 187 327 l20 52 -259 160 c-143 89 -264 161 -269
161 -5 0 -46 -53 -92 -117 -266 -380 -486 -569 -703 -606 -125 -21 -266 23
-371 117 l-50 45 613 613 c336 337 612 618 612 623 0 18 -306 330 -403 411
-339 285 -706 414 -1062 374z m108 -793 c65 -30 203 -130 234 -168 10 -13 -36
-63 -276 -303 l-289 -288 -71 92 c-199 258 -202 426 -11 603 130 121 255 140
413 64z m-3089 -3028 c62 -23 175 -96 246 -158 l45 -40 -287 -288 -287 -287
-22 20 c-31 28 -142 201 -170 264 -18 43 -23 73 -24 140 0 101 20 151 95 234
126 137 250 173 404 115z"/>
</g>
</svg>
